<svg fill="none" height="100%" width="100%" viewBox="0 0 1080 1080" xmlns:xlink="http://www.w3.org/1999/xlink" xmlns="http://www.w3.org/2000/svg"><g id="i0"><animate repeatCount="indefinite" attributeName="opacity" dur="2.35s" begin="0s" fill="freeze" values="1; 0; 0" keyTimes="0; 0.531915; 1" keySplines="0.674 0 0.566 1; 0 0 1 1" calcMode="spline" /><g transform="translate(540,540)"><g transform="rotate(0)"><animateTransform repeatCount="indefinite" type="rotate" attributeName="transform" dur="2.35s" begin="0s" calcMode="spline" values="0; 360; 360" keyTimes="0; 0.531915; 1" keySplines="0.5 0 0.5 1; 0 0 1 1" fill="freeze" /><g transform="scale(2,2) translate(-33,-91)"><g stroke-linecap="round" stroke-width="14" stroke="#34b233"><g transform="translate(33,91)"><g id="i1" transform="scale(1,1)"><animateTransform repeatCount="indefinite" type="scale" attributeName="transform" dur="2.35s" begin="0s" calcMode="spline" values="1 1; 0 1; 1 1; 1 1" keyTimes="0; 0.262411; 0.531915; 1" keySplines="0.333 0 0.667 1; 0.333 0 0.667 1; 0 0 1 1" fill="freeze" /><ellipse ry="117" rx="117" cy="0" cx="0" /></g></g></g></g></g></g></g><g id="i0"><animate repeatCount="indefinite" attributeName="opacity" dur="2.35s" begin="0s" fill="freeze" values="1; 0; 0" keyTimes="0; 0.531915; 1" keySplines="0.674 0 0.566 1; 0 0 1 1" calcMode="spline" /><g transform="translate(540,540)"><g transform="rotate(90)"><animateTransform repeatCount="indefinite" type="rotate" attributeName="transform" dur="2.35s" begin="0s" calcMode="spline" values="90; 450; 450" keyTimes="0; 0.531915; 1" keySplines="0.5 0 0.5 1; 0 0 1 1" fill="freeze" /><g transform="scale(2,2) translate(-33,-91)"><g stroke-linecap="round" stroke-width="14" stroke="#34b233"><g transform="translate(33,91)"><g id="i1" transform="scale(1,1)"><animateTransform repeatCount="indefinite" type="scale" attributeName="transform" dur="2.35s" begin="0s" calcMode="spline" values="1 1; 0 1; 1 1; 1 1" keyTimes="0; 0.262411; 0.531915; 1" keySplines="0.333 0 0.667 1; 0.333 0 0.667 1; 0 0 1 1" fill="freeze" /><ellipse ry="117" rx="117" cy="0" cx="0" /></g></g></g></g></g></g></g><g transform="matrix(1,0,0,1,0,0)" visibility="hidden" id="i1"><animate repeatCount="indefinite" begin="0s" calcMode="discrete" dur="2.35s" values="hidden; visible; visible" keyTimes="0; 0.489; 1" attributeName="visibility" /><g opacity="0"><animate repeatCount="indefinite" attributeName="opacity" dur="2.35s" begin="0s" fill="freeze" values="0; 0; 1; 1; 0; 0" keyTimes="0; 0.453901; 0.460993; 0.702128; 0.77305; 1" keySplines="0 0 1 1; 0 0 1 1; 0.167 0 0.667 1; 0.333 0 0.667 1; 0 0 1 1" calcMode="spline" /><g transform="translate(540,540)"><animateTransform repeatCount="indefinite" type="translate" attributeName="transform" dur="2.35s" begin="0s" calcMode="spline" values="540 540; 540 540; 540 141; 540 141" keyTimes="0; 0.453901; 0.737589; 1" keySplines="0 0 1 1; 0.167 0.167 0 1; 0 0 1 1" fill="freeze" /><g id="i1" transform="scale(0.7,0.7)"><g id="i2"><ellipse ry="35" rx="35" cy="0" cx="0" fill="#ff005d" /></g></g></g></g><g opacity="0"><animate repeatCount="indefinite" attributeName="opacity" dur="2.35s" begin="0s" fill="freeze" values="0; 0; 1; 1; 0; 0" keyTimes="0; 0.453901; 0.460993; 0.702128; 0.77305; 1" keySplines="0 0 1 1; 0 0 1 1; 0.167 0 0.667 1; 0.333 0 0.667 1; 0 0 1 1" calcMode="spline" /><g transform="translate(540.18,538.981)"><animateTransform repeatCount="indefinite" type="translate" attributeName="transform" dur="2.35s" begin="0s" calcMode="spline" values="540.18 538.981; 540.18 538.981; 915.117 675.447; 915.117 675.447" keyTimes="0; 0.453901; 0.737589; 1" keySplines="0 0 1 1; 0.167 0.167 0 1; 0 0 1 1" fill="freeze" /><g id="i1" transform="rotate(-250)"><g id="i2" transform="matrix(0.777,0.629,-0.629,0.777,0,0)"><path stroke-miterlimit="10" stroke-width="15" stroke="#ff4b3d" d="M27.957,-13.979C27.957,1.461,15.44,13.979,0,13.979C-15.44,13.979,-27.957,1.461,-27.957,-13.979" /></g></g></g></g><g opacity="0"><animate repeatCount="indefinite" attributeName="opacity" dur="2.35s" begin="0s" fill="freeze" values="0; 0; 1; 1; 0; 0" keyTimes="0; 0.453901; 0.460993; 0.702128; 0.77305; 1" keySplines="0 0 1 1; 0 0 1 1; 0.167 0 0.667 1; 0.333 0 0.667 1; 0 0 1 1" calcMode="spline" /><g transform="translate(540,540)"><animateTransform repeatCount="indefinite" type="translate" attributeName="transform" dur="2.35s" begin="0s" calcMode="spline" values="540 540; 540 540; 845.652 283.528; 845.652 283.528" keyTimes="0; 0.453901; 0.737589; 1" keySplines="0 0 1 1; 0.167 0.167 0 1; 0 0 1 1" fill="freeze" /><g id="i1" transform="rotate(-310)"><g id="i2" transform="matrix(0.829,0.559,-0.559,0.829,0,0)"><path stroke-miterlimit="10" stroke-width="15" stroke="#06bc5c" d="M27.957,-13.979C27.957,1.461,15.44,13.979,0,13.979C-15.44,13.979,-27.957,1.461,-27.957,-13.979" /></g></g></g></g><g opacity="0"><animate repeatCount="indefinite" attributeName="opacity" dur="2.35s" begin="0s" fill="freeze" values="0; 0; 1; 1; 0; 0" keyTimes="0; 0.453901; 0.460993; 0.702128; 0.77305; 1" keySplines="0 0 1 1; 0 0 1 1; 0.167 0 0.667 1; 0.333 0 0.667 1; 0 0 1 1" calcMode="spline" /><g transform="translate(540,540)"><animateTransform repeatCount="indefinite" type="translate" attributeName="transform" dur="2.35s" begin="0s" calcMode="spline" values="540 540; 540 540; 939 540; 939 540" keyTimes="0; 0.453901; 0.737589; 1" keySplines="0 0 1 1; 0.167 0.167 0 1; 0 0 1 1" fill="freeze" /><g id="i1" transform="rotate(90)"><g id="i2"><path fill="#f5b401" d="M31.518,2.561C31.518,2.561,13.717,12.392,13.717,12.392C13.204,12.675,12.782,13.099,12.503,13.615C12.503,13.615,2.819,31.496,2.819,31.496C1.665,33.627,-1.389,33.64,-2.561,31.518C-2.561,31.518,-12.392,13.717,-12.392,13.717C-12.675,13.204,-13.099,12.782,-13.615,12.503C-13.615,12.503,-31.496,2.819,-31.496,2.819C-33.627,1.665,-33.64,-1.389,-31.518,-2.561C-31.518,-2.561,-13.717,-12.392,-13.717,-12.392C-13.204,-12.675,-12.782,-13.099,-12.503,-13.615C-12.503,-13.615,-2.819,-31.496,-2.819,-31.496C-1.665,-33.627,1.389,-33.64,2.561,-31.518C2.561,-31.518,12.392,-13.717,12.392,-13.717C12.675,-13.204,13.099,-12.782,13.615,-12.503C13.615,-12.503,31.496,-2.819,31.496,-2.819C33.627,-1.665,33.64,1.389,31.518,2.561Z" /></g></g></g></g><g opacity="0"><animate repeatCount="indefinite" attributeName="opacity" dur="2.35s" begin="0s" fill="freeze" values="0; 0; 1; 1; 0; 0" keyTimes="0; 0.453901; 0.460993; 0.702128; 0.77305; 1" keySplines="0 0 1 1; 0 0 1 1; 0.167 0 0.667 1; 0.333 0 0.667 1; 0 0 1 1" calcMode="spline" /><g transform="translate(540.372,539.846)"><animateTransform repeatCount="indefinite" type="translate" attributeName="transform" dur="2.35s" begin="0s" calcMode="spline" values="540.372 539.846; 540.372 539.846; 141.372 539.846; 141.372 539.846" keyTimes="0; 0.453901; 0.737589; 1" keySplines="0 0 1 1; 0.167 0.167 0 1; 0 0 1 1" fill="freeze" /><g id="i1" transform="rotate(630)"><g id="i2"><path fill="#f5b401" d="M31.518,2.561C31.518,2.561,13.717,12.392,13.717,12.392C13.204,12.675,12.782,13.099,12.503,13.615C12.503,13.615,2.819,31.496,2.819,31.496C1.665,33.627,-1.389,33.64,-2.561,31.518C-2.561,31.518,-12.392,13.717,-12.392,13.717C-12.675,13.204,-13.099,12.782,-13.615,12.503C-13.615,12.503,-31.496,2.819,-31.496,2.819C-33.627,1.665,-33.64,-1.389,-31.518,-2.561C-31.518,-2.561,-13.717,-12.392,-13.717,-12.392C-13.204,-12.675,-12.782,-13.099,-12.503,-13.615C-12.503,-13.615,-2.819,-31.496,-2.819,-31.496C-1.665,-33.627,1.389,-33.64,2.561,-31.518C2.561,-31.518,12.392,-13.717,12.392,-13.717C12.675,-13.204,13.099,-12.782,13.615,-12.503C13.615,-12.503,31.496,-2.819,31.496,-2.819C33.627,-1.665,33.64,1.389,31.518,2.561Z" /></g></g></g></g><g opacity="0"><animate repeatCount="indefinite" attributeName="opacity" dur="2.35s" begin="0s" fill="freeze" values="0; 0; 1; 1; 0; 0" keyTimes="0; 0.460993; 0.468085; 0.70922; 0.780142; 1" keySplines="0 0 1 1; 0 0 1 1; 0.167 0 0.667 1; 0.333 0 0.667 1; 0 0 1 1" calcMode="spline" /><g transform="translate(540,540)"><animateTransform repeatCount="indefinite" type="translate" attributeName="transform" dur="2.35s" begin="0s" calcMode="spline" values="540 540; 540 540; 845.652 796.472; 845.652 796.472" keyTimes="0; 0.460993; 0.744681; 1" keySplines="0 0 1 1; 0.167 0.167 0 1; 0 0 1 1" fill="freeze" /><g id="i1" transform="rotate(48)"><g id="i2" transform="matrix(0.8,0,0,0.8,0,0)"><rect height="70" width="70" y="-35" x="-35" fill="#00ffc8" /></g></g></g></g><g opacity="0"><animate repeatCount="indefinite" attributeName="opacity" dur="2.35s" begin="0s" fill="freeze" values="0; 0; 1; 1; 0; 0" keyTimes="0; 0.460993; 0.468085; 0.70922; 0.780142; 1" keySplines="0 0 1 1; 0 0 1 1; 0.167 0 0.667 1; 0.333 0 0.667 1; 0 0 1 1" calcMode="spline" /><g transform="translate(540,540)"><animateTransform repeatCount="indefinite" type="translate" attributeName="transform" dur="2.35s" begin="0s" calcMode="spline" values="540 540; 540 540; 257.864 822.136; 257.864 822.136" keyTimes="0; 0.460993; 0.744681; 1" keySplines="0 0 1 1; 0.167 0.167 0 1; 0 0 1 1" fill="freeze" /><g id="i1" transform="rotate(-217)"><g id="i2" transform="matrix(0.8,0,0,0.8,0,0)"><rect height="70" width="70" y="-35" x="-35" fill="#00ffc8" /></g></g></g></g><g opacity="0"><animate repeatCount="indefinite" attributeName="opacity" dur="2.35s" begin="0s" fill="freeze" values="0; 0; 1; 1; 0; 0" keyTimes="0; 0.460993; 0.468085; 0.70922; 0.780142; 1" keySplines="0 0 1 1; 0 0 1 1; 0.167 0 0.667 1; 0.333 0 0.667 1; 0 0 1 1" calcMode="spline" /><g transform="translate(540,540)"><animateTransform repeatCount="indefinite" type="translate" attributeName="transform" dur="2.35s" begin="0s" calcMode="spline" values="540 540; 540 540; 540 939; 540 939" keyTimes="0; 0.460993; 0.744681; 1" keySplines="0 0 1 1; 0.167 0.167 0 1; 0 0 1 1" fill="freeze" /><g id="i1" transform="rotate(90)"><g id="i2" transform="matrix(0.809,0.588,-0.588,0.809,0,0)"><path stroke-miterlimit="10" stroke-width="15" stroke="#00a1ff" d="M0,-35C0,-35,0,35,0,35" /></g></g></g></g><g opacity="0"><animate repeatCount="indefinite" attributeName="opacity" dur="2.35s" begin="0s" fill="freeze" values="0; 0; 1; 1; 0; 0" keyTimes="0; 0.453901; 0.460993; 0.702128; 0.77305; 1" keySplines="0 0 1 1; 0 0 1 1; 0.167 0 0.667 1; 0.333 0 0.667 1; 0 0 1 1" calcMode="spline" /><g transform="translate(540.476,539.252)"><animateTransform repeatCount="indefinite" type="translate" attributeName="transform" dur="2.35s" begin="0s" calcMode="spline" values="540.476 539.252; 540.476 539.252; 178.86 707.877; 178.86 707.877" keyTimes="0; 0.453901; 0.737589; 1" keySplines="0 0 1 1; 0.167 0.167 0 1; 0 0 1 1" fill="freeze" /><g id="i1" transform="rotate(-115)"><g id="i2" transform="matrix(0.7,0,0,0.7,0,0)"><ellipse ry="35" rx="35" cy="0" cx="0" fill="#ff005d" /></g></g></g></g><g opacity="0"><animate repeatCount="indefinite" attributeName="opacity" dur="2.35s" begin="0s" fill="freeze" values="0; 0; 1; 1; 0; 0" keyTimes="0; 0.453901; 0.460993; 0.702128; 0.77305; 1" keySplines="0 0 1 1; 0 0 1 1; 0.167 0 0.667 1; 0.333 0 0.667 1; 0 0 1 1" calcMode="spline" /><g transform="translate(540.476,539.252)"><animateTransform repeatCount="indefinite" type="translate" attributeName="transform" dur="2.35s" begin="0s" calcMode="spline" values="540.476 539.252; 540.476 539.252; 709.101 900.869; 709.101 900.869" keyTimes="0; 0.453901; 0.737589; 1" keySplines="0 0 1 1; 0.167 0.167 0 1; 0 0 1 1" fill="freeze" /><g id="i1" transform="rotate(-205)"><g id="i2" transform="matrix(0.777,0.629,-0.629,0.777,0,0)"><path stroke-miterlimit="10" stroke-width="15" stroke="#ff4b3d" d="M27.957,-13.979C27.957,1.461,15.44,13.979,0,13.979C-15.44,13.979,-27.957,1.461,-27.957,-13.979" /></g></g></g></g><g opacity="0"><animate repeatCount="indefinite" attributeName="opacity" dur="2.35s" begin="0s" fill="freeze" values="0; 0; 1; 1; 0; 0" keyTimes="0; 0.453901; 0.460993; 0.702128; 0.77305; 1" keySplines="0 0 1 1; 0 0 1 1; 0.167 0 0.667 1; 0.333 0 0.667 1; 0 0 1 1" calcMode="spline" /><g transform="translate(540.476,539.252)"><animateTransform repeatCount="indefinite" type="translate" attributeName="transform" dur="2.35s" begin="0s" calcMode="spline" values="540.476 539.252; 540.476 539.252; 178.86 370.628; 178.86 370.628" keyTimes="0; 0.453901; 0.737589; 1" keySplines="0 0 1 1; 0.167 0.167 0 1; 0 0 1 1" fill="freeze" /><g id="i1" transform="rotate(-425)"><g id="i2" transform="matrix(0.829,0.559,-0.559,0.829,0,0)"><path stroke-miterlimit="10" stroke-width="15" stroke="#06bc5c" d="M27.957,-13.979C27.957,1.461,15.44,13.979,0,13.979C-15.44,13.979,-27.957,1.461,-27.957,-13.979" /></g></g></g></g><g opacity="0"><animate repeatCount="indefinite" attributeName="opacity" dur="2.35s" begin="0s" fill="freeze" values="0; 0; 1; 1; 0; 0" keyTimes="0; 0.453901; 0.460993; 0.702128; 0.77305; 1" keySplines="0 0 1 1; 0 0 1 1; 0.167 0 0.667 1; 0.333 0 0.667 1; 0 0 1 1" calcMode="spline" /><g transform="translate(540.476,539.252)"><animateTransform repeatCount="indefinite" type="translate" attributeName="transform" dur="2.35s" begin="0s" calcMode="spline" values="540.476 539.252; 540.476 539.252; 371.852 177.635; 371.852 177.635" keyTimes="0; 0.453901; 0.737589; 1" keySplines="0 0 1 1; 0.167 0.167 0 1; 0 0 1 1" fill="freeze" /><g id="i1" transform="rotate(-25)"><g id="i2"><path fill="#f5b401" d="M31.518,2.561C31.518,2.561,13.717,12.392,13.717,12.392C13.204,12.675,12.782,13.099,12.503,13.615C12.503,13.615,2.819,31.496,2.819,31.496C1.665,33.627,-1.389,33.64,-2.561,31.518C-2.561,31.518,-12.392,13.717,-12.392,13.717C-12.675,13.204,-13.099,12.782,-13.615,12.503C-13.615,12.503,-31.496,2.819,-31.496,2.819C-33.627,1.665,-33.64,-1.389,-31.518,-2.561C-31.518,-2.561,-13.717,-12.392,-13.717,-12.392C-13.204,-12.675,-12.782,-13.099,-12.503,-13.615C-12.503,-13.615,-2.819,-31.496,-2.819,-31.496C-1.665,-33.627,1.389,-33.64,2.561,-31.518C2.561,-31.518,12.392,-13.717,12.392,-13.717C12.675,-13.204,13.099,-12.782,13.615,-12.503C13.615,-12.503,31.496,-2.819,31.496,-2.819C33.627,-1.665,33.64,1.389,31.518,2.561Z" /></g></g></g></g><g opacity="0"><animate repeatCount="indefinite" attributeName="opacity" dur="2.35s" begin="0s" fill="freeze" values="0; 0; 1; 1; 0; 0" keyTimes="0; 0.453901; 0.460993; 0.702128; 0.77305; 1" keySplines="0 0 1 1; 0 0 1 1; 0.167 0 0.667 1; 0.333 0 0.667 1; 0 0 1 1" calcMode="spline" /><g transform="translate(540.476,539.252)"><animateTransform repeatCount="indefinite" type="translate" attributeName="transform" dur="2.35s" begin="0s" calcMode="spline" values="540.476 539.252; 540.476 539.252; 404.01 914.19; 404.01 914.19" keyTimes="0; 0.453901; 0.737589; 1" keySplines="0 0 1 1; 0.167 0.167 0 1; 0 0 1 1" fill="freeze" /><g id="i1" transform="rotate(200)"><g id="i2"><path fill="#f5b401" d="M31.518,2.561C31.518,2.561,13.717,12.392,13.717,12.392C13.204,12.675,12.782,13.099,12.503,13.615C12.503,13.615,2.819,31.496,2.819,31.496C1.665,33.627,-1.389,33.64,-2.561,31.518C-2.561,31.518,-12.392,13.717,-12.392,13.717C-12.675,13.204,-13.099,12.782,-13.615,12.503C-13.615,12.503,-31.496,2.819,-31.496,2.819C-33.627,1.665,-33.64,-1.389,-31.518,-2.561C-31.518,-2.561,-13.717,-12.392,-13.717,-12.392C-13.204,-12.675,-12.782,-13.099,-12.503,-13.615C-12.503,-13.615,-2.819,-31.496,-2.819,-31.496C-1.665,-33.627,1.389,-33.64,2.561,-31.518C2.561,-31.518,12.392,-13.717,12.392,-13.717C12.675,-13.204,13.099,-12.782,13.615,-12.503C13.615,-12.503,31.496,-2.819,31.496,-2.819C33.627,-1.665,33.64,1.389,31.518,2.561Z" /></g></g></g></g><g opacity="0"><animate repeatCount="indefinite" attributeName="opacity" dur="2.35s" begin="0s" fill="freeze" values="0; 0; 1; 1; 0; 0" keyTimes="0; 0.460993; 0.468085; 0.70922; 0.780142; 1" keySplines="0 0 1 1; 0 0 1 1; 0.167 0 0.667 1; 0.333 0 0.667 1; 0 0 1 1" calcMode="spline" /><g transform="translate(540.508,539.338)"><animateTransform repeatCount="indefinite" type="translate" attributeName="transform" dur="2.35s" begin="0s" calcMode="spline" values="540.508 539.338; 540.508 539.338; 709.132 177.722; 709.132 177.722" keyTimes="0; 0.460993; 0.744681; 1" keySplines="0 0 1 1; 0.167 0.167 0 1; 0 0 1 1" fill="freeze" /><g id="i1" transform="rotate(-57)"><g id="i2" transform="matrix(0.8,0,0,0.8,0,0)"><rect height="70" width="70" y="-35" x="-35" fill="#00ffc8" /></g></g></g></g><g opacity="0"><animate repeatCount="indefinite" attributeName="opacity" dur="2.35s" begin="0s" fill="freeze" values="0; 0; 1; 1; 0; 0" keyTimes="0; 0.460993; 0.468085; 0.70922; 0.780142; 1" keySplines="0 0 1 1; 0 0 1 1; 0.167 0 0.667 1; 0.333 0 0.667 1; 0 0 1 1" calcMode="spline" /><g transform="translate(539.474,539.474)"><animateTransform repeatCount="indefinite" type="translate" attributeName="transform" dur="2.35s" begin="0s" calcMode="spline" values="539.474 539.474; 539.474 539.474; 257.339 257.339; 257.339 257.339" keyTimes="0; 0.460993; 0.744681; 1" keySplines="0 0 1 1; 0.167 0.167 0 1; 0 0 1 1" fill="freeze" /><g id="i1" transform="rotate(-487)"><g id="i2" transform="matrix(0.8,0,0,0.8,0,0)"><rect height="70" width="70" y="-35" x="-35" fill="#00ffc8" /></g></g></g></g><g opacity="0"><animate repeatCount="indefinite" attributeName="opacity" dur="2.35s" begin="0s" fill="freeze" values="0; 0; 1; 1; 0; 0" keyTimes="0; 0.460993; 0.468085; 0.70922; 0.780142; 1" keySplines="0 0 1 1; 0 0 1 1; 0.167 0 0.667 1; 0.333 0 0.667 1; 0 0 1 1" calcMode="spline" /><g transform="translate(540.491,539.286)"><animateTransform repeatCount="indefinite" type="translate" attributeName="transform" dur="2.35s" begin="0s" calcMode="spline" values="540.491 539.286; 540.491 539.286; 912.989 396.297; 912.989 396.297" keyTimes="0; 0.460993; 0.744681; 1" keySplines="0 0 1 1; 0.167 0.167 0 1; 0 0 1 1" fill="freeze" /><g id="i1" transform="rotate(-21)"><g id="i2" transform="matrix(0.809,0.588,-0.588,0.809,0,0)"><path stroke-miterlimit="10" stroke-width="15" stroke="#00a1ff" d="M0,-35C0,-35,0,35,0,35" /></g></g></g></g></g><g transform="matrix(-0.654,0.251,-0.251,-0.654,1026.553,743.468)" visibility="hidden" id="i1"><animate repeatCount="indefinite" begin="0s" calcMode="discrete" dur="2.35s" values="hidden; visible; visible" keyTimes="0; 0.504; 1" attributeName="visibility" /><g opacity="0"><animate repeatCount="indefinite" attributeName="opacity" dur="2.35s" begin="0s" fill="freeze" values="0; 0; 1; 1; 0; 0" keyTimes="0; 0.503546; 0.510638; 0.751773; 0.822695; 1" keySplines="0 0 1 1; 0 0 1 1; 0.167 0 0.667 1; 0.333 0 0.667 1; 0 0 1 1" calcMode="spline" /><g id="i1" transform="translate(540,540)"><animateTransform repeatCount="indefinite" type="translate" attributeName="transform" dur="2.35s" begin="0s" calcMode="spline" values="540 540; 540 540; 540 141; 540 141" keyTimes="0; 0.503546; 0.787234; 1" keySplines="0 0 1 1; 0.167 0.167 0 1; 0 0 1 1" fill="freeze" /><g id="i2"><ellipse ry="35" rx="35" cy="0" cx="0" fill="#ff005d" /></g></g></g><g opacity="0"><animate repeatCount="indefinite" attributeName="opacity" dur="2.35s" begin="0s" fill="freeze" values="0; 0; 1; 1; 0; 0" keyTimes="0; 0.503546; 0.510638; 0.751773; 0.822695; 1" keySplines="0 0 1 1; 0 0 1 1; 0.167 0 0.667 1; 0.333 0 0.667 1; 0 0 1 1" calcMode="spline" /><g transform="translate(540.18,538.981)"><animateTransform repeatCount="indefinite" type="translate" attributeName="transform" dur="2.35s" begin="0s" calcMode="spline" values="540.18 538.981; 540.18 538.981; 915.117 675.447; 915.117 675.447" keyTimes="0; 0.503546; 0.787234; 1" keySplines="0 0 1 1; 0.167 0.167 0 1; 0 0 1 1" fill="freeze" /><g id="i1" transform="rotate(-250)"><g id="i2" transform="matrix(0.777,0.629,-0.629,0.777,0,0)"><path stroke-miterlimit="10" stroke-width="15" stroke="#ff4b3d" d="M27.957,-13.979C27.957,1.461,15.44,13.979,0,13.979C-15.44,13.979,-27.957,1.461,-27.957,-13.979" /></g></g></g></g><g opacity="0"><animate repeatCount="indefinite" attributeName="opacity" dur="2.35s" begin="0s" fill="freeze" values="0; 0; 1; 1; 0; 0" keyTimes="0; 0.503546; 0.510638; 0.751773; 0.822695; 1" keySplines="0 0 1 1; 0 0 1 1; 0.167 0 0.667 1; 0.333 0 0.667 1; 0 0 1 1" calcMode="spline" /><g transform="translate(540,540)"><animateTransform repeatCount="indefinite" type="translate" attributeName="transform" dur="2.35s" begin="0s" calcMode="spline" values="540 540; 540 540; 845.652 283.528; 845.652 283.528" keyTimes="0; 0.503546; 0.787234; 1" keySplines="0 0 1 1; 0.167 0.167 0 1; 0 0 1 1" fill="freeze" /><g id="i1" transform="rotate(-310)"><g id="i2" transform="matrix(0.829,0.559,-0.559,0.829,0,0)"><path stroke-miterlimit="10" stroke-width="15" stroke="#06bc5c" d="M27.957,-13.979C27.957,1.461,15.44,13.979,0,13.979C-15.44,13.979,-27.957,1.461,-27.957,-13.979" /></g></g></g></g><g opacity="0"><animate repeatCount="indefinite" attributeName="opacity" dur="2.35s" begin="0s" fill="freeze" values="0; 0; 1; 1; 0; 0" keyTimes="0; 0.503546; 0.510638; 0.751773; 0.822695; 1" keySplines="0 0 1 1; 0 0 1 1; 0.167 0 0.667 1; 0.333 0 0.667 1; 0 0 1 1" calcMode="spline" /><g transform="translate(540,540)"><animateTransform repeatCount="indefinite" type="translate" attributeName="transform" dur="2.35s" begin="0s" calcMode="spline" values="540 540; 540 540; 939 540; 939 540" keyTimes="0; 0.503546; 0.787234; 1" keySplines="0 0 1 1; 0.167 0.167 0 1; 0 0 1 1" fill="freeze" /><g id="i1" transform="rotate(90)"><g id="i2"><path fill="#f5b401" d="M31.518,2.561C31.518,2.561,13.717,12.392,13.717,12.392C13.204,12.675,12.782,13.099,12.503,13.615C12.503,13.615,2.819,31.496,2.819,31.496C1.665,33.627,-1.389,33.64,-2.561,31.518C-2.561,31.518,-12.392,13.717,-12.392,13.717C-12.675,13.204,-13.099,12.782,-13.615,12.503C-13.615,12.503,-31.496,2.819,-31.496,2.819C-33.627,1.665,-33.64,-1.389,-31.518,-2.561C-31.518,-2.561,-13.717,-12.392,-13.717,-12.392C-13.204,-12.675,-12.782,-13.099,-12.503,-13.615C-12.503,-13.615,-2.819,-31.496,-2.819,-31.496C-1.665,-33.627,1.389,-33.64,2.561,-31.518C2.561,-31.518,12.392,-13.717,12.392,-13.717C12.675,-13.204,13.099,-12.782,13.615,-12.503C13.615,-12.503,31.496,-2.819,31.496,-2.819C33.627,-1.665,33.64,1.389,31.518,2.561Z" /></g></g></g></g><g opacity="0"><animate repeatCount="indefinite" attributeName="opacity" dur="2.35s" begin="0s" fill="freeze" values="0; 0; 1; 1; 0; 0" keyTimes="0; 0.503546; 0.510638; 0.751773; 0.822695; 1" keySplines="0 0 1 1; 0 0 1 1; 0.167 0 0.667 1; 0.333 0 0.667 1; 0 0 1 1" calcMode="spline" /><g transform="translate(540.372,539.846)"><animateTransform repeatCount="indefinite" type="translate" attributeName="transform" dur="2.35s" begin="0s" calcMode="spline" values="540.372 539.846; 540.372 539.846; 141.372 539.846; 141.372 539.846" keyTimes="0; 0.503546; 0.787234; 1" keySplines="0 0 1 1; 0.167 0.167 0 1; 0 0 1 1" fill="freeze" /><g id="i1" transform="rotate(630)"><g id="i2"><path fill="#f5b401" d="M31.518,2.561C31.518,2.561,13.717,12.392,13.717,12.392C13.204,12.675,12.782,13.099,12.503,13.615C12.503,13.615,2.819,31.496,2.819,31.496C1.665,33.627,-1.389,33.64,-2.561,31.518C-2.561,31.518,-12.392,13.717,-12.392,13.717C-12.675,13.204,-13.099,12.782,-13.615,12.503C-13.615,12.503,-31.496,2.819,-31.496,2.819C-33.627,1.665,-33.64,-1.389,-31.518,-2.561C-31.518,-2.561,-13.717,-12.392,-13.717,-12.392C-13.204,-12.675,-12.782,-13.099,-12.503,-13.615C-12.503,-13.615,-2.819,-31.496,-2.819,-31.496C-1.665,-33.627,1.389,-33.64,2.561,-31.518C2.561,-31.518,12.392,-13.717,12.392,-13.717C12.675,-13.204,13.099,-12.782,13.615,-12.503C13.615,-12.503,31.496,-2.819,31.496,-2.819C33.627,-1.665,33.64,1.389,31.518,2.561Z" /></g></g></g></g><g opacity="0"><animate repeatCount="indefinite" attributeName="opacity" dur="2.35s" begin="0s" fill="freeze" values="0; 0; 1; 1; 0; 0" keyTimes="0; 0.510638; 0.51773; 0.758865; 0.829787; 1" keySplines="0 0 1 1; 0 0 1 1; 0.167 0 0.667 1; 0.333 0 0.667 1; 0 0 1 1" calcMode="spline" /><g transform="translate(540,540)"><animateTransform repeatCount="indefinite" type="translate" attributeName="transform" dur="2.35s" begin="0s" calcMode="spline" values="540 540; 540 540; 845.652 796.472; 845.652 796.472" keyTimes="0; 0.510638; 0.794326; 1" keySplines="0 0 1 1; 0.167 0.167 0 1; 0 0 1 1" fill="freeze" /><g id="i1" transform="rotate(48)"><g id="i2" transform="matrix(0.8,0,0,0.8,0,0)"><rect height="70" width="70" y="-35" x="-35" fill="#00ffc8" /></g></g></g></g><g opacity="0"><animate repeatCount="indefinite" attributeName="opacity" dur="2.35s" begin="0s" fill="freeze" values="0; 0; 1; 1; 0; 0" keyTimes="0; 0.510638; 0.51773; 0.758865; 0.829787; 1" keySplines="0 0 1 1; 0 0 1 1; 0.167 0 0.667 1; 0.333 0 0.667 1; 0 0 1 1" calcMode="spline" /><g transform="translate(540,540)"><animateTransform repeatCount="indefinite" type="translate" attributeName="transform" dur="2.35s" begin="0s" calcMode="spline" values="540 540; 540 540; 257.864 822.136; 257.864 822.136" keyTimes="0; 0.510638; 0.794326; 1" keySplines="0 0 1 1; 0.167 0.167 0 1; 0 0 1 1" fill="freeze" /><g id="i1" transform="rotate(-217)"><g id="i2" transform="matrix(0.8,0,0,0.8,0,0)"><rect height="70" width="70" y="-35" x="-35" fill="#00ffc8" /></g></g></g></g><g opacity="0"><animate repeatCount="indefinite" attributeName="opacity" dur="2.35s" begin="0s" fill="freeze" values="0; 0; 1; 1; 0; 0" keyTimes="0; 0.510638; 0.51773; 0.758865; 0.829787; 1" keySplines="0 0 1 1; 0 0 1 1; 0.167 0 0.667 1; 0.333 0 0.667 1; 0 0 1 1" calcMode="spline" /><g transform="translate(540,540)"><animateTransform repeatCount="indefinite" type="translate" attributeName="transform" dur="2.35s" begin="0s" calcMode="spline" values="540 540; 540 540; 540 939; 540 939" keyTimes="0; 0.510638; 0.794326; 1" keySplines="0 0 1 1; 0.167 0.167 0 1; 0 0 1 1" fill="freeze" /><g id="i1" transform="rotate(90)"><g id="i2" transform="matrix(0.809,0.588,-0.588,0.809,0,0)"><path stroke-miterlimit="10" stroke-width="15" stroke="#00a1ff" d="M0,-35C0,-35,0,35,0,35" /></g></g></g></g><g opacity="0"><animate repeatCount="indefinite" attributeName="opacity" dur="2.35s" begin="0s" fill="freeze" values="0; 0; 1; 1; 0; 0" keyTimes="0; 0.503546; 0.510638; 0.751773; 0.822695; 1" keySplines="0 0 1 1; 0 0 1 1; 0.167 0 0.667 1; 0.333 0 0.667 1; 0 0 1 1" calcMode="spline" /><g transform="translate(540.476,539.252)"><animateTransform repeatCount="indefinite" type="translate" attributeName="transform" dur="2.35s" begin="0s" calcMode="spline" values="540.476 539.252; 540.476 539.252; 178.86 707.877; 178.86 707.877" keyTimes="0; 0.503546; 0.787234; 1" keySplines="0 0 1 1; 0.167 0.167 0 1; 0 0 1 1" fill="freeze" /><g id="i1" transform="rotate(-115)"><g id="i2"><ellipse ry="35" rx="35" cy="0" cx="0" fill="#ff005d" /></g></g></g></g><g opacity="0"><animate repeatCount="indefinite" attributeName="opacity" dur="2.35s" begin="0s" fill="freeze" values="0; 0; 1; 1; 0; 0" keyTimes="0; 0.503546; 0.510638; 0.751773; 0.822695; 1" keySplines="0 0 1 1; 0 0 1 1; 0.167 0 0.667 1; 0.333 0 0.667 1; 0 0 1 1" calcMode="spline" /><g transform="translate(540.476,539.252)"><animateTransform repeatCount="indefinite" type="translate" attributeName="transform" dur="2.35s" begin="0s" calcMode="spline" values="540.476 539.252; 540.476 539.252; 709.101 900.869; 709.101 900.869" keyTimes="0; 0.503546; 0.787234; 1" keySplines="0 0 1 1; 0.167 0.167 0 1; 0 0 1 1" fill="freeze" /><g id="i1" transform="rotate(-205)"><g id="i2" transform="matrix(0.777,0.629,-0.629,0.777,0,0)"><path stroke-miterlimit="10" stroke-width="15" stroke="#ff4b3d" d="M27.957,-13.979C27.957,1.461,15.44,13.979,0,13.979C-15.44,13.979,-27.957,1.461,-27.957,-13.979" /></g></g></g></g><g opacity="0"><animate repeatCount="indefinite" attributeName="opacity" dur="2.35s" begin="0s" fill="freeze" values="0; 0; 1; 1; 0; 0" keyTimes="0; 0.503546; 0.510638; 0.751773; 0.822695; 1" keySplines="0 0 1 1; 0 0 1 1; 0.167 0 0.667 1; 0.333 0 0.667 1; 0 0 1 1" calcMode="spline" /><g transform="translate(540.476,539.252)"><animateTransform repeatCount="indefinite" type="translate" attributeName="transform" dur="2.35s" begin="0s" calcMode="spline" values="540.476 539.252; 540.476 539.252; 178.86 370.628; 178.86 370.628" keyTimes="0; 0.503546; 0.787234; 1" keySplines="0 0 1 1; 0.167 0.167 0 1; 0 0 1 1" fill="freeze" /><g id="i1" transform="rotate(-425)"><g id="i2" transform="matrix(0.829,0.559,-0.559,0.829,0,0)"><path stroke-miterlimit="10" stroke-width="15" stroke="#06bc5c" d="M27.957,-13.979C27.957,1.461,15.44,13.979,0,13.979C-15.44,13.979,-27.957,1.461,-27.957,-13.979" /></g></g></g></g><g opacity="0"><animate repeatCount="indefinite" attributeName="opacity" dur="2.35s" begin="0s" fill="freeze" values="0; 0; 1; 1; 0; 0" keyTimes="0; 0.503546; 0.510638; 0.751773; 0.822695; 1" keySplines="0 0 1 1; 0 0 1 1; 0.167 0 0.667 1; 0.333 0 0.667 1; 0 0 1 1" calcMode="spline" /><g transform="translate(540.476,539.252)"><animateTransform repeatCount="indefinite" type="translate" attributeName="transform" dur="2.35s" begin="0s" calcMode="spline" values="540.476 539.252; 540.476 539.252; 371.852 177.635; 371.852 177.635" keyTimes="0; 0.503546; 0.787234; 1" keySplines="0 0 1 1; 0.167 0.167 0 1; 0 0 1 1" fill="freeze" /><g id="i1" transform="rotate(-25)"><g id="i2"><path fill="#f5b401" d="M31.518,2.561C31.518,2.561,13.717,12.392,13.717,12.392C13.204,12.675,12.782,13.099,12.503,13.615C12.503,13.615,2.819,31.496,2.819,31.496C1.665,33.627,-1.389,33.64,-2.561,31.518C-2.561,31.518,-12.392,13.717,-12.392,13.717C-12.675,13.204,-13.099,12.782,-13.615,12.503C-13.615,12.503,-31.496,2.819,-31.496,2.819C-33.627,1.665,-33.64,-1.389,-31.518,-2.561C-31.518,-2.561,-13.717,-12.392,-13.717,-12.392C-13.204,-12.675,-12.782,-13.099,-12.503,-13.615C-12.503,-13.615,-2.819,-31.496,-2.819,-31.496C-1.665,-33.627,1.389,-33.64,2.561,-31.518C2.561,-31.518,12.392,-13.717,12.392,-13.717C12.675,-13.204,13.099,-12.782,13.615,-12.503C13.615,-12.503,31.496,-2.819,31.496,-2.819C33.627,-1.665,33.64,1.389,31.518,2.561Z" /></g></g></g></g><g opacity="0"><animate repeatCount="indefinite" attributeName="opacity" dur="2.35s" begin="0s" fill="freeze" values="0; 0; 1; 1; 0; 0" keyTimes="0; 0.503546; 0.510638; 0.751773; 0.822695; 1" keySplines="0 0 1 1; 0 0 1 1; 0.167 0 0.667 1; 0.333 0 0.667 1; 0 0 1 1" calcMode="spline" /><g transform="translate(540.476,539.252)"><animateTransform repeatCount="indefinite" type="translate" attributeName="transform" dur="2.35s" begin="0s" calcMode="spline" values="540.476 539.252; 540.476 539.252; 404.01 914.19; 404.01 914.19" keyTimes="0; 0.503546; 0.787234; 1" keySplines="0 0 1 1; 0.167 0.167 0 1; 0 0 1 1" fill="freeze" /><g id="i1" transform="rotate(200)"><g id="i2"><path fill="#f5b401" d="M31.518,2.561C31.518,2.561,13.717,12.392,13.717,12.392C13.204,12.675,12.782,13.099,12.503,13.615C12.503,13.615,2.819,31.496,2.819,31.496C1.665,33.627,-1.389,33.64,-2.561,31.518C-2.561,31.518,-12.392,13.717,-12.392,13.717C-12.675,13.204,-13.099,12.782,-13.615,12.503C-13.615,12.503,-31.496,2.819,-31.496,2.819C-33.627,1.665,-33.64,-1.389,-31.518,-2.561C-31.518,-2.561,-13.717,-12.392,-13.717,-12.392C-13.204,-12.675,-12.782,-13.099,-12.503,-13.615C-12.503,-13.615,-2.819,-31.496,-2.819,-31.496C-1.665,-33.627,1.389,-33.64,2.561,-31.518C2.561,-31.518,12.392,-13.717,12.392,-13.717C12.675,-13.204,13.099,-12.782,13.615,-12.503C13.615,-12.503,31.496,-2.819,31.496,-2.819C33.627,-1.665,33.64,1.389,31.518,2.561Z" /></g></g></g></g><g opacity="0"><animate repeatCount="indefinite" attributeName="opacity" dur="2.35s" begin="0s" fill="freeze" values="0; 0; 1; 1; 0; 0" keyTimes="0; 0.510638; 0.51773; 0.758865; 0.829787; 1" keySplines="0 0 1 1; 0 0 1 1; 0.167 0 0.667 1; 0.333 0 0.667 1; 0 0 1 1" calcMode="spline" /><g transform="translate(540.508,539.338)"><animateTransform repeatCount="indefinite" type="translate" attributeName="transform" dur="2.35s" begin="0s" calcMode="spline" values="540.508 539.338; 540.508 539.338; 709.132 177.722; 709.132 177.722" keyTimes="0; 0.510638; 0.794326; 1" keySplines="0 0 1 1; 0.167 0.167 0 1; 0 0 1 1" fill="freeze" /><g id="i1" transform="rotate(-57)"><g id="i2" transform="matrix(0.8,0,0,0.8,0,0)"><rect height="70" width="70" y="-35" x="-35" fill="#00ffc8" /></g></g></g></g><g opacity="0"><animate repeatCount="indefinite" attributeName="opacity" dur="2.35s" begin="0s" fill="freeze" values="0; 0; 1; 1; 0; 0" keyTimes="0; 0.510638; 0.51773; 0.758865; 0.829787; 1" keySplines="0 0 1 1; 0 0 1 1; 0.167 0 0.667 1; 0.333 0 0.667 1; 0 0 1 1" calcMode="spline" /><g transform="translate(539.474,539.474)"><animateTransform repeatCount="indefinite" type="translate" attributeName="transform" dur="2.35s" begin="0s" calcMode="spline" values="539.474 539.474; 539.474 539.474; 257.339 257.339; 257.339 257.339" keyTimes="0; 0.510638; 0.794326; 1" keySplines="0 0 1 1; 0.167 0.167 0 1; 0 0 1 1" fill="freeze" /><g id="i1" transform="rotate(-487)"><g id="i2" transform="matrix(0.8,0,0,0.8,0,0)"><rect height="70" width="70" y="-35" x="-35" fill="#00ffc8" /></g></g></g></g><g opacity="0"><animate repeatCount="indefinite" attributeName="opacity" dur="2.35s" begin="0s" fill="freeze" values="0; 0; 1; 1; 0; 0" keyTimes="0; 0.510638; 0.51773; 0.758865; 0.829787; 1" keySplines="0 0 1 1; 0 0 1 1; 0.167 0 0.667 1; 0.333 0 0.667 1; 0 0 1 1" calcMode="spline" /><g transform="translate(540.491,539.286)"><animateTransform repeatCount="indefinite" type="translate" attributeName="transform" dur="2.35s" begin="0s" calcMode="spline" values="540.491 539.286; 540.491 539.286; 912.989 396.297; 912.989 396.297" keyTimes="0; 0.510638; 0.794326; 1" keySplines="0 0 1 1; 0.167 0.167 0 1; 0 0 1 1" fill="freeze" /><g id="i1" transform="rotate(-21)"><g id="i2" transform="matrix(0.809,0.588,-0.588,0.809,0,0)"><path stroke-miterlimit="10" stroke-width="15" stroke="#00a1ff" d="M0,-35C0,-35,0,35,0,35" /></g></g></g></g></g><g visibility="hidden" id="i0"><animate repeatCount="indefinite" begin="0s" calcMode="discrete" dur="2.35s" values="hidden; visible; visible" keyTimes="0; 0.362; 1" attributeName="visibility" /><g transform="translate(540,540)"><g transform="scale(0,0)"><animateTransform repeatCount="indefinite" type="scale" attributeName="transform" dur="2.35s" begin="0s" calcMode="spline" values="0 0; 0 0; 1 1; 1 1" keyTimes="0; 0.347518; 0.560284; 1" keySplines="0 0 1 1; 0.167 0.167 0 1; 0 0 1 1" fill="freeze" /><g transform="translate(-93,-57)"><g id="i1" transform="matrix(1,0,0,1,93,57)"><ellipse ry="175" rx="175" cy="0" cx="0" stroke-width="0" stroke="#000000" fill="#34b200" /></g></g></g></g></g><g visibility="hidden" id="i3"><animate repeatCount="indefinite" begin="0s" calcMode="discrete" dur="2.35s" values="hidden; visible; visible" keyTimes="0; 0.348; 1" attributeName="visibility" /><g transform="translate(543,541)"><animateTransform repeatCount="indefinite" type="translate" attributeName="transform" dur="2.35s" begin="0s" calcMode="spline" values="543 541; 543 541; 543 513; 543 513" keyTimes="0; 0.460993; 0.602837; 1" keySplines="0 0 1 1; 0.167 0.167 0 1; 0 0 1 1" fill="freeze" /><g transform="rotate(-45) scale(1,1) translate(-30.25,10)"><g id="i4"><path stroke-linejoin="round" stroke-linecap="round" stroke-width="28" stroke="#ffffff" d="M100.5,20.5"><set fill="freeze" dur="0.017s" begin="1.0833333333333333s" to="M100.5,20.5" attributeName="d" /><set fill="freeze" dur="0.017s" begin="1.1s" to="M100.5,20.5C100.499,20.5,-39.999,20.5,-40,20.5C-40,20.5,-40,-4.161,-40,-22.122" attributeName="d" /><set fill="freeze" dur="0.017s" begin="1.1166666666666667s" to="M100.5,20.5C100.499,20.5,-39.999,20.5,-40,20.5C-40,20.5,-40,19.328,-40,17.31" attributeName="d" /><set fill="freeze" dur="0.017s" begin="1.1333333333333333s" to="M100.5,20.5C100.5,20.5,34.669,20.5,-6.87,20.5" attributeName="d" /><set fill="freeze" dur="0.017s" begin="1.15s" to="M100.5,20.5C100.5,20.5,56.412,20.5,17.629,20.5" attributeName="d" /><set fill="freeze" dur="0.017s" begin="1.1666666666666667s" to="M100.5,20.5C100.5,20.5,68.575,20.5,35.161,20.5" attributeName="d" /><set fill="freeze" dur="0.017s" begin="1.1833333333333333s" to="M100.5,20.5C100.5,20.5,76.576,20.5,48.472,20.5" attributeName="d" /><set fill="freeze" dur="0.017s" begin="1.2s" to="M100.5,20.5C100.5,20.5,82.28,20.5,58.962,20.5" attributeName="d" /><set fill="freeze" dur="0.017s" begin="1.2166666666666666s" to="M100.5,20.5C100.5,20.5,86.539,20.5,67.42,20.5" attributeName="d" /><set fill="freeze" dur="0.017s" begin="1.2333333333333334s" to="M100.5,20.5C100.5,20.5,89.813,20.5,74.334,20.5" attributeName="d" /><set fill="freeze" dur="0.017s" begin="1.25s" to="M100.5,20.5C100.5,20.5,92.373,20.5,80.028,20.5" attributeName="d" /><set fill="freeze" dur="0.017s" begin="1.2666666666666666s" to="M100.5,20.5C100.5,20.5,94.395,20.5,84.73,20.5" attributeName="d" /><set fill="freeze" dur="0.017s" begin="1.2833333333333334s" to="M100.5,20.5C100.5,20.5,95.997,20.5,88.604,20.5" attributeName="d" /><set fill="freeze" dur="0.017s" begin="1.3s" to="M100.5,20.5C100.5,20.5,97.265,20.5,91.777,20.5" attributeName="d" /><set fill="freeze" dur="0.017s" begin="1.3166666666666667s" to="M100.5,20.5C100.5,20.5,98.26,20.5,94.345,20.5" attributeName="d" /><set fill="freeze" dur="0.017s" begin="1.3333333333333333s" to="M100.5,20.5C100.5,20.5,99.028,20.5,96.385,20.5" attributeName="d" /><set fill="freeze" dur="0.017s" begin="1.35s" to="M100.5,20.5C100.5,20.5,99.605,20.5,97.959,20.5" attributeName="d" /><set fill="freeze" dur="0.017s" begin="1.3666666666666667s" to="M100.5,20.5C100.5,20.5,100.021,20.5,99.119,20.5" attributeName="d" /><set fill="freeze" dur="0.017s" begin="1.3833333333333333s" to="M100.5,20.5C100.5,20.5,100.297,20.5,99.906,20.5" attributeName="d" /><set fill="freeze" dur="0.017s" begin="1.4s" to="M100.5,20.5C100.5,20.5,100.451,20.5,100.356,20.5" attributeName="d" /><set fill="freeze" dur="0.017s" begin="1.4166666666666667s" to="M100.5,20.5" attributeName="d" /></path></g></g></g></g></svg>